<?xml version="1.0" standalone="no"?>
<!DOCTYPE svg PUBLIC "-//W3C//DTD SVG 20010904//EN"
 "http://www.w3.org/TR/2001/REC-SVG-20010904/DTD/svg10.dtd">
<svg version="1.0" xmlns="http://www.w3.org/2000/svg"
 width="595.000000pt" height="419.000000pt" viewBox="0 0 595.000000 419.000000"
 preserveAspectRatio="xMidYMid meet">
<metadata>
Created by potrace 1.16, written by Peter Selinger 2001-2019
</metadata>
<g transform="translate(0.000000,419.000000) scale(0.100000,-0.100000)"
fill="#000000" stroke="none">
<path d="M1953 3650 c-91 -46 -145 -120 -173 -239 -29 -124 7 -367 86 -577 19
-52 34 -100 32 -106 -2 -6 -51 -27 -108 -48 -58 -20 -127 -47 -155 -60 -430
-200 -471 -476 -99 -663 83 -42 212 -88 314 -112 41 -10 76 -19 78 -20 2 -2
-10 -47 -27 -101 -52 -171 -74 -305 -69 -424 6 -128 31 -198 92 -267 64 -71
122 -97 227 -101 75 -3 97 0 180 28 163 54 329 154 517 310 49 41 78 58 85 52
7 -5 50 -39 97 -76 250 -200 505 -327 685 -343 159 -13 279 54 340 189 68 151
36 430 -86 735 -16 41 -29 79 -29 86 0 7 29 23 65 35 291 105 475 268 475 422
0 142 -170 282 -451 371 -116 37 -110 22 -65 174 138 464 15 765 -304 742
-172 -12 -415 -136 -651 -333 l-78 -65 -88 72 c-182 147 -385 266 -543 320
-46 15 -97 23 -175 26 -107 5 -111 4 -172 -27z m288 1 c189 -49 422 -183 631
-363 l57 -49 73 61 c188 156 396 280 538 319 47 13 104 21 156 21 73 0 89 -4
145 -32 178 -93 212 -331 103 -711 -19 -65 -34 -122 -34 -126 0 -5 46 -23 103
-40 205 -65 360 -157 413 -246 63 -108 51 -194 -42 -294 -82 -89 -191 -154
-369 -222 -63 -24 -99 -43 -97 -51 2 -7 16 -44 32 -83 69 -168 104 -298 121
-443 15 -135 3 -227 -41 -318 -32 -66 -71 -102 -147 -136 -65 -29 -226 -22
-328 14 -153 54 -321 153 -494 289 -52 41 -104 82 -117 92 -23 18 -24 18 -46
-4 -87 -83 -301 -235 -410 -290 -292 -148 -517 -119 -604 76 -61 138 -49 342
37 619 17 54 29 99 27 100 -2 2 -46 13 -98 26 -289 70 -490 190 -539 323 -17
43 -13 117 8 163 54 118 224 232 476 319 61 21 114 42 118 45 5 4 -11 66 -36
137 -64 183 -87 299 -87 436 0 129 14 190 60 259 76 114 217 154 391 109z"/>
<path d="M2019 3584 c-64 -19 -123 -85 -145 -160 -22 -77 -15 -255 15 -374 23
-90 99 -308 110 -314 3 -2 44 5 91 15 107 25 375 69 416 69 26 0 42 14 110 92
43 51 119 134 169 186 l89 94 -34 29 c-229 193 -463 327 -639 365 -82 17 -123
17 -182 -2z m213 -20 c159 -41 370 -164 592 -347 l30 -24 -125 -134 c-68 -74
-140 -153 -159 -176 l-35 -43 -120 -15 c-102 -14 -165 -25 -386 -71 -25 -6
-28 -2 -58 80 -98 272 -121 463 -74 609 17 55 71 113 117 126 50 15 153 12
218 -5z"/>
<path d="M3542 3545 c-163 -56 -308 -146 -531 -331 l-25 -22 169 -175 170
-176 45 -1 c59 0 272 -26 374 -45 44 -9 83 -12 87 -8 10 10 74 230 90 308 20
99 15 260 -10 325 -24 63 -79 122 -130 139 -58 19 -159 13 -239 -14z m256 -9
c40 -21 87 -77 103 -123 18 -48 18 -257 1 -333 -33 -150 -76 -280 -91 -280 -9
0 -65 9 -126 19 -60 11 -166 25 -235 31 l-125 12 -105 112 c-58 61 -129 133
-157 160 -29 27 -53 53 -53 56 0 11 195 161 278 215 206 133 407 184 510 131z"/>
<path d="M2840 3050 c-104 -107 -185 -199 -179 -204 10 -9 539 8 539 17 0 5
-60 70 -134 145 l-134 136 -92 -94z m220 -55 c92 -93 112 -117 100 -125 -8 -5
-111 -10 -232 -10 -119 0 -224 -3 -234 -7 -10 -4 -15 -2 -13 4 9 24 235 253
249 253 8 0 67 -52 130 -115z"/>
<path d="M2780 2773 c-19 -1 -73 -6 -118 -9 l-84 -6 -90 -121 c-96 -131 -238
-349 -238 -367 0 -19 159 -246 279 -397 l26 -33 180 0 c162 0 294 7 501 26
l70 6 46 62 c72 99 152 215 207 304 49 79 51 83 37 110 -21 41 -159 232 -245
340 l-74 92 -231 -2 c-127 0 -247 -3 -266 -5z m523 -45 c86 -100 287 -383 287
-403 0 -15 -115 -196 -209 -327 -67 -93 -80 -107 -111 -112 -93 -16 -246 -27
-465 -32 l-240 -6 -73 94 c-108 139 -222 309 -222 330 0 21 154 259 250 386
34 45 72 84 84 87 49 11 363 23 511 20 l160 -4 28 -33z"/>
<path d="M2826 2659 c-96 -23 -199 -109 -247 -207 -20 -40 -24 -62 -24 -152 0
-97 2 -110 30 -163 39 -78 127 -159 202 -187 48 -18 73 -21 148 -18 79 3 98 8
153 37 157 85 234 256 188 424 -53 194 -253 312 -450 266z m214 -24 c92 -32
169 -105 211 -200 33 -76 32 -200 -3 -277 -37 -80 -105 -149 -181 -184 -54
-25 -74 -29 -152 -29 -110 1 -174 27 -249 101 -174 174 -126 462 96 575 77 39
190 45 278 14z"/>
<path d="M3390 2764 c0 -3 44 -66 99 -138 54 -72 111 -150 126 -173 15 -24 32
-43 36 -43 10 0 98 172 129 250 16 40 17 49 5 54 -14 5 -248 40 -342 51 -29 3
-53 3 -53 -1z m180 -29 c58 -8 128 -20 157 -26 l52 -10 -19 -49 c-26 -65 -97
-207 -108 -214 -4 -2 -28 25 -53 61 -24 37 -71 103 -104 147 -34 45 -64 87
-69 94 -10 16 12 15 144 -3z"/>
<path d="M2375 2733 c-60 -9 -328 -63 -337 -69 -12 -8 147 -314 163 -314 4 0
31 37 59 83 29 45 85 127 124 181 97 136 93 126 54 125 -18 -1 -46 -4 -63 -6z
m58 -9 c3 -3 -17 -38 -46 -77 -28 -40 -81 -119 -118 -176 l-68 -103 -21 33
c-11 19 -45 82 -75 141 l-55 106 32 11 c18 5 92 21 163 35 72 14 139 27 150
29 11 3 23 5 26 6 3 0 8 -2 12 -5z"/>
<path d="M3790 2517 c-46 -94 -86 -177 -88 -183 -1 -7 19 -49 46 -95 28 -46
67 -119 88 -162 45 -90 31 -88 185 -28 178 70 315 165 353 245 50 105 -17 207
-189 294 -64 32 -267 102 -294 102 -11 0 -44 -57 -101 -173z m236 118 c59 -19
138 -52 176 -73 286 -154 217 -334 -189 -500 -56 -23 -108 -42 -115 -42 -7 1
-52 71 -99 157 l-86 156 33 59 c35 61 90 174 117 241 20 46 27 46 163 2z"/>
<path d="M1835 2605 c-344 -117 -527 -289 -447 -420 66 -106 245 -201 495
-260 l98 -23 27 61 c15 34 55 117 89 184 l62 122 -45 77 c-25 42 -69 125 -99
185 -31 60 -61 109 -68 109 -6 -1 -57 -16 -112 -35z m170 -92 c32 -60 75 -138
97 -175 l40 -67 -87 -176 c-48 -96 -90 -175 -94 -175 -18 0 -197 52 -269 79
-117 42 -200 92 -255 150 -44 47 -47 54 -47 104 0 69 32 116 123 181 95 68
354 182 419 185 11 1 35 -34 73 -106z"/>
<path d="M3562 2113 c-49 -76 -102 -155 -118 -176 -15 -20 -25 -39 -23 -42 12
-11 379 72 379 87 0 18 -135 268 -145 268 -1 0 -43 -62 -93 -137z m167 -14
c28 -53 51 -100 51 -106 0 -14 -316 -90 -327 -79 -2 2 42 72 98 156 84 125
104 149 114 138 7 -7 36 -56 64 -109z"/>
<path d="M2182 2157 c-25 -42 -107 -215 -116 -244 -6 -18 -3 -23 16 -27 52
-12 169 -25 267 -32 118 -8 115 -14 41 81 -26 33 -77 104 -114 158 -37 53 -69
97 -71 97 -2 0 -12 -15 -23 -33z m78 -65 c25 -37 71 -102 104 -145 32 -43 56
-80 53 -83 -5 -5 -274 22 -314 32 -13 4 -23 12 -21 19 7 33 114 244 123 244 6
0 30 -30 55 -67z"/>
<path d="M3735 1883 c-49 -13 -157 -35 -240 -50 l-150 -26 -60 -75 c-33 -41
-115 -132 -182 -202 l-122 -127 32 -30 c167 -155 455 -327 613 -367 85 -22
188 -20 240 3 178 81 186 376 21 787 -23 59 -47 108 -52 109 -6 1 -50 -9 -100
-22z m114 -32 c36 -69 102 -274 122 -376 59 -299 -17 -474 -207 -475 -175 -1
-450 138 -712 359 l-53 44 88 91 c88 90 134 141 225 248 40 47 54 56 90 61
126 17 193 30 293 56 61 16 116 29 122 30 7 0 21 -16 32 -38z"/>
<path d="M2022 1803 c-6 -10 -24 -63 -41 -118 -79 -256 -82 -474 -9 -581 40
-58 83 -79 171 -83 91 -4 163 13 277 65 127 59 420 267 437 310 3 10 -16 34
-53 68 -33 29 -110 110 -172 178 l-112 125 -103 7 c-101 7 -307 31 -359 42
-19 4 -29 0 -36 -13z m139 -18 c35 -4 78 -9 94 -11 17 -2 81 -7 144 -11 111
-6 114 -7 140 -36 73 -85 224 -246 260 -279 22 -20 41 -41 41 -47 0 -15 -124
-115 -238 -192 -464 -312 -733 -207 -658 256 16 98 55 247 82 311 12 30 16 32
42 25 16 -5 58 -12 93 -16z"/>
<path d="M3065 1779 c-49 -4 -165 -9 -257 -11 -92 -2 -170 -7 -173 -10 -12
-12 268 -298 291 -298 19 0 304 304 304 324 0 7 -43 6 -165 -5z m130 -9 c6 -9
-125 -159 -222 -253 l-50 -48 -129 131 c-71 72 -130 134 -132 139 -1 4 73 11
165 15 205 8 337 17 342 22 7 7 20 4 26 -6z"/>
</g>
</svg>
