<?xml version="1.0" standalone="no"?>
<!DOCTYPE svg PUBLIC "-//W3C//DTD SVG 20010904//EN"
 "http://www.w3.org/TR/2001/REC-SVG-20010904/DTD/svg10.dtd">
<svg version="1.0" xmlns="http://www.w3.org/2000/svg"
 width="1080.000000pt" height="761.000000pt" viewBox="0 0 1080.000000 761.000000"
 preserveAspectRatio="xMidYMid meet">
<metadata>
Created by potrace 1.16, written by Peter Selinger 2001-2019
</metadata>
<g transform="translate(0.000000,761.000000) scale(0.100000,-0.100000)"
fill="#000000" stroke="none">
<path d="M0 3805 l0 -3805 5400 0 5400 0 0 3805 0 3805 -5400 0 -5400 0 0
-3805z m4050 2835 c124 -36 203 -62 235 -75 140 -60 277 -131 423 -220 142
-87 371 -256 527 -389 91 -78 82 -74 111 -48 10 9 54 46 98 82 43 36 90 75
104 88 14 13 62 49 106 80 43 31 88 65 98 75 10 9 20 17 22 17 2 0 37 23 79
50 42 28 79 50 82 50 4 0 26 14 51 31 97 67 346 173 499 214 95 25 287 31 365
11 71 -18 171 -65 210 -99 104 -91 177 -240 207 -426 10 -58 10 -260 0 -326
-4 -27 -10 -68 -13 -90 -22 -159 -48 -263 -126 -508 -23 -73 -37 -132 -32
-137 5 -5 47 -18 94 -30 47 -11 94 -25 105 -29 11 -5 63 -23 115 -40 123 -41
323 -139 420 -206 75 -52 180 -148 180 -164 0 -5 6 -14 14 -20 28 -23 75 -137
81 -198 16 -137 -60 -295 -196 -413 -29 -25 -57 -50 -63 -55 -6 -6 -54 -38
-106 -71 -128 -83 -379 -203 -490 -236 -19 -5 -39 -13 -45 -17 -5 -4 -29 -14
-53 -21 -24 -7 -45 -17 -47 -20 -3 -4 9 -35 25 -69 17 -34 30 -64 30 -68 0 -4
9 -25 19 -47 27 -57 106 -285 131 -381 12 -44 28 -100 35 -125 16 -51 18 -65
39 -210 34 -239 33 -311 -11 -510 -41 -192 -183 -347 -373 -410 -57 -19 -212
-24 -312 -10 -91 12 -279 67 -375 110 -137 62 -285 140 -365 193 -30 20 -60
37 -66 37 -6 0 -12 3 -14 8 -1 4 -39 32 -83 61 -44 29 -100 70 -125 90 -25 20
-61 48 -80 61 -19 13 -41 30 -48 37 -8 7 -30 26 -50 41 -21 15 -39 29 -42 32
-26 28 -129 110 -138 110 -6 0 -14 -9 -17 -20 -3 -11 -10 -20 -15 -20 -7 0
-88 -64 -183 -146 -64 -54 -292 -216 -379 -269 -170 -103 -288 -162 -424 -211
-134 -47 -212 -64 -329 -71 -207 -11 -370 62 -487 219 -37 48 -83 167 -103
264 -19 92 -21 310 -5 424 6 41 13 86 15 100 1 14 14 73 28 130 14 58 28 125
32 150 4 25 11 50 15 55 4 6 22 57 39 115 18 58 37 115 44 128 6 14 7 26 1 31
-5 5 -49 17 -99 26 -49 10 -94 21 -100 25 -5 4 -50 17 -100 30 -121 31 -309
101 -425 159 -219 110 -348 220 -415 356 -36 74 -39 86 -39 165 1 131 42 222
158 341 64 66 147 131 221 173 28 16 52 32 55 35 8 10 231 118 280 136 25 9
54 21 65 26 63 27 148 58 177 64 18 4 39 11 48 16 8 5 41 16 73 25 35 9 57 21
57 29 0 8 -11 38 -24 67 -39 83 -153 431 -170 518 -3 14 -12 57 -20 95 -30
139 -39 248 -33 405 6 168 20 235 68 335 42 86 47 93 117 162 66 66 99 86 197
121 89 31 90 31 225 28 92 -3 145 -9 200 -26z"/>
<path d="M3684 6516 c-130 -32 -227 -131 -280 -286 -16 -47 -19 -85 -19 -270
0 -209 16 -351 45 -415 5 -11 19 -60 31 -110 25 -106 139 -422 163 -454 12
-16 32 -13 221 29 166 37 304 61 555 96 238 33 222 29 245 62 11 16 47 59 80
97 33 37 63 72 67 79 11 19 143 160 290 311 l137 140 -32 25 c-36 29 -122 101
-152 129 -11 10 -67 53 -125 95 -58 42 -114 83 -125 92 -11 9 -30 21 -42 27
-13 5 -23 14 -23 19 0 4 -5 8 -12 8 -6 0 -26 11 -44 25 -18 14 -35 25 -38 25
-3 0 -34 17 -68 38 -101 62 -305 158 -408 192 -174 57 -348 75 -466 46z"/>
<path d="M6510 6460 c-91 -21 -226 -73 -339 -130 -100 -51 -245 -138 -249
-151 -2 -5 -8 -9 -13 -9 -9 0 -122 -75 -153 -102 -6 -4 -44 -33 -83 -64 -40
-30 -73 -60 -73 -65 0 -5 -5 -9 -12 -9 -10 0 -101 -73 -149 -119 -15 -15 -1
-31 155 -186 94 -94 207 -211 251 -260 44 -50 99 -110 122 -134 23 -24 44 -48
45 -53 2 -6 87 -16 188 -24 102 -7 239 -20 305 -29 66 -9 138 -19 160 -21 22
-3 47 -7 55 -10 8 -3 56 -12 105 -20 50 -8 97 -17 106 -19 12 -4 23 14 47 77
17 46 39 110 47 143 9 33 20 69 25 80 15 34 59 245 76 365 19 133 15 313 -10
425 -35 157 -122 268 -242 312 -54 19 -83 23 -177 22 -70 0 -140 -8 -187 -19z"/>
<path d="M5159 5543 c-154 -160 -339 -363 -339 -375 0 -11 50 -13 131 -6 147
14 246 18 554 23 170 4 310 7 312 8 12 13 -470 497 -495 497 -12 0 -78 -60
-163 -147z"/>
<path d="M5145 5039 c-241 -11 -465 -33 -474 -46 -3 -6 -18 -25 -33 -44 -64
-79 -217 -290 -266 -364 -29 -44 -56 -85 -61 -91 -32 -39 -231 -360 -231 -372
0 -9 64 -107 72 -110 5 -2 8 -8 8 -12 0 -12 209 -313 264 -381 12 -14 32 -41
46 -59 61 -81 154 -196 168 -207 12 -10 81 -13 266 -13 250 0 520 14 899 47
l199 17 39 56 c21 30 45 62 52 70 50 53 345 494 430 642 l28 48 -20 39 c-11
21 -26 45 -34 52 -7 8 -27 38 -45 67 -18 30 -37 59 -43 65 -5 7 -47 64 -93
129 -45 64 -94 130 -107 146 -13 17 -49 63 -79 103 -30 40 -73 94 -95 120 -22
26 -49 59 -60 73 l-21 27 -309 3 c-171 2 -395 0 -500 -5z m357 -244 c205 -72
344 -215 422 -433 22 -63 26 -89 26 -190 -1 -107 -3 -124 -33 -202 -41 -107
-73 -162 -133 -229 -84 -93 -169 -148 -299 -192 -59 -20 -89 -24 -190 -23
-126 1 -157 8 -280 62 -111 48 -248 181 -298 287 -56 117 -71 184 -71 300 0
91 5 124 27 190 48 145 144 275 261 352 69 46 188 93 260 103 95 14 229 3 308
-25z"/>
<path d="M6160 5007 c0 -10 98 -139 151 -201 19 -22 168 -232 236 -333 37 -56
73 -102 80 -102 16 -1 253 479 253 511 0 8 5 19 11 25 6 6 7 13 2 16 -19 12
-417 72 -578 87 -141 13 -155 13 -155 -3z"/>
<path d="M4410 4974 c-8 -1 -64 -10 -125 -19 -60 -9 -141 -23 -180 -31 -38 -8
-137 -28 -220 -45 -201 -41 -195 -40 -195 -51 0 -12 102 -215 164 -327 25 -46
46 -85 46 -87 0 -3 36 -65 76 -131 14 -22 44 -22 44 -1 0 6 18 37 40 70 22 33
40 62 40 64 0 4 137 215 150 231 6 7 25 34 42 60 18 27 48 68 66 93 19 25 42
56 53 70 73 98 71 94 52 102 -19 7 -29 8 -53 2z"/>
<path d="M6995 4803 c-42 -98 -185 -392 -240 -493 -19 -36 -35 -73 -35 -82 0
-10 17 -46 38 -80 65 -106 189 -331 240 -435 29 -59 40 -73 59 -73 39 0 291
97 438 170 249 122 409 259 460 393 25 66 17 160 -20 222 -40 69 -123 146
-224 209 -50 31 -93 56 -95 56 -2 0 -37 15 -78 34 -40 18 -107 46 -148 61 -41
14 -84 30 -95 34 -28 12 -241 71 -253 71 -5 0 -26 -39 -47 -87z"/>
<path d="M3490 4780 c-30 -10 -61 -19 -68 -19 -8 -1 -28 -8 -45 -15 -18 -8
-70 -27 -117 -42 -47 -14 -99 -35 -116 -45 -17 -11 -37 -19 -44 -19 -24 0
-237 -110 -325 -168 -109 -71 -210 -170 -249 -242 -40 -74 -47 -167 -17 -235
23 -53 28 -59 90 -122 84 -86 227 -174 381 -234 41 -16 84 -34 95 -39 64 -28
473 -140 514 -140 5 0 25 39 46 88 44 103 201 422 249 506 37 64 37 68 -9 141
-61 98 -173 302 -244 445 -39 79 -75 147 -79 151 -4 4 -32 -1 -62 -11z"/>
<path d="M6589 4023 c-18 -32 -47 -79 -66 -104 -18 -26 -33 -51 -33 -55 -1 -5
-14 -25 -30 -44 -17 -19 -30 -39 -30 -45 0 -5 -10 -21 -21 -35 -11 -14 -36
-49 -55 -79 -20 -30 -42 -61 -50 -68 -8 -8 -14 -18 -14 -22 0 -4 -8 -16 -17
-27 -39 -43 -65 -86 -57 -94 14 -12 225 23 414 70 19 5 86 21 149 36 62 16
115 33 117 39 5 12 -47 122 -113 238 -25 45 -60 107 -76 137 -38 70 -66 110
-77 110 -5 0 -23 -26 -41 -57z"/>
<path d="M3982 3953 c-20 -28 -166 -325 -217 -441 -17 -38 -25 -66 -19 -72 18
-18 412 -70 534 -70 36 0 84 -5 108 -10 24 -6 48 -8 53 -4 10 6 -5 36 -41 77
-48 56 -266 355 -305 418 -30 48 -86 129 -90 129 -2 0 -12 -12 -23 -27z"/>
<path d="M6945 3462 c-6 -5 -30 -14 -55 -20 -98 -25 -226 -55 -240 -56 -9 -1
-20 -5 -25 -8 -6 -3 -55 -14 -110 -23 -88 -14 -171 -30 -270 -50 -16 -3 -60
-10 -98 -14 -37 -5 -74 -15 -83 -22 -9 -7 -40 -45 -69 -84 -30 -38 -64 -82
-77 -96 -13 -14 -50 -56 -83 -94 -33 -37 -63 -72 -67 -78 -3 -7 -85 -93 -182
-192 l-175 -180 37 -35 c21 -19 58 -51 82 -70 25 -19 47 -37 50 -40 3 -4 46
-37 95 -74 50 -37 97 -73 106 -81 31 -24 209 -145 215 -145 3 0 26 -14 51 -32
52 -35 297 -159 364 -183 24 -9 69 -25 99 -36 125 -45 346 -64 445 -38 141 37
229 126 280 283 45 140 44 396 -1 596 -47 208 -128 455 -222 680 -40 94 -49
108 -67 92z"/>
<path d="M3670 3275 c-6 -14 -15 -37 -20 -51 -57 -145 -131 -442 -146 -579 -2
-22 -8 -58 -13 -80 -19 -81 -7 -333 18 -390 5 -11 14 -40 21 -64 33 -122 130
-215 263 -251 69 -19 261 -8 357 20 119 35 355 138 400 176 8 6 31 20 51 31
85 45 310 205 424 301 11 9 55 46 98 82 42 35 77 68 77 73 0 4 -78 86 -172
180 -95 95 -191 193 -213 218 -71 80 -179 202 -210 236 l-30 33 -160 11 c-165
10 -438 39 -618 64 -56 8 -105 15 -110 15 -4 0 -12 -11 -17 -25z"/>
<path d="M5785 3249 c-27 -4 -86 -11 -130 -14 -44 -3 -98 -8 -120 -10 -22 -3
-202 -10 -400 -16 -198 -7 -361 -13 -363 -14 -2 -2 16 -24 40 -51 205 -229
471 -494 496 -494 18 0 210 188 323 315 29 33 55 62 58 65 4 3 31 34 60 70 30
36 60 70 66 75 6 6 21 23 33 39 17 23 20 31 10 38 -7 4 -15 7 -18 7 -3 -1 -27
-5 -55 -10z"/>
</g>
</svg>
